<svg xmlns="http://www.w3.org/2000/svg" width="226" height="35" viewBox="0 0 226 35"><rect class="svg__rect" x="0" y="0" width="164.88" height="35" fill="#DE6611"/><rect class="svg__rect" x="162.88" y="0" width="63.120000000000005" height="35" fill="#27201B"/><path class="svg__text" d="M15.70 22L14.22 22L14.22 13.47L15.70 13.47L15.70 17.02L19.51 17.02L19.51 13.47L20.99 13.47L20.99 22L19.51 22L19.51 18.21L15.70 18.21L15.70 22ZM26.51 22L24.97 22L28.19 13.47L29.52 13.47L32.75 22L31.20 22L30.51 20.01L27.20 20.01L26.51 22ZM28.85 15.28L27.62 18.82L30.09 18.82L28.85 15.28ZM36.44 18.19L36.44 18.19L36.44 17.39Q36.44 16.19 36.86 15.27Q37.29 14.35 38.09 13.85Q38.89 13.35 39.94 13.35L39.94 13.35Q41.35 13.35 42.21 14.12Q43.07 14.89 43.22 16.29L43.22 16.29L41.74 16.29Q41.63 15.37 41.20 14.96Q40.77 14.55 39.94 14.55L39.94 14.55Q38.97 14.55 38.45 15.26Q37.94 15.96 37.92 17.33L37.92 17.33L37.92 18.09Q37.92 19.47 38.42 20.20Q38.91 20.92 39.87 20.92L39.87 20.92Q40.74 20.92 41.18 20.53Q41.62 20.14 41.74 19.22L41.74 19.22L43.22 19.22Q43.09 20.59 42.21 21.35Q41.33 22.12 39.87 22.12L39.87 22.12Q38.85 22.12 38.07 21.63Q37.30 21.15 36.88 20.26Q36.45 19.37 36.44 18.19ZM49.01 22L47.53 22L47.53 13.47L49.01 13.47L49.01 17.47L49.83 16.46L52.33 13.47L54.12 13.47L50.95 17.25L54.30 22L52.54 22L49.98 18.31L49.01 19.34L49.01 22ZM59.76 14.66L57.13 14.66L57.13 13.47L63.89 13.47L63.89 14.66L61.23 14.66L61.23 22L59.76 22L59.76 14.66ZM67.38 18.00L67.38 18.00L67.38 17.52Q67.38 16.28 67.82 15.32Q68.26 14.37 69.07 13.86Q69.88 13.35 70.92 13.35Q71.96 13.35 72.77 13.85Q73.57 14.35 74.01 15.29Q74.45 16.23 74.46 17.48L74.46 17.48L74.46 17.96Q74.46 19.21 74.02 20.16Q73.59 21.10 72.78 21.61Q71.98 22.12 70.93 22.12L70.93 22.12Q69.89 22.12 69.08 21.61Q68.27 21.10 67.83 20.17Q67.39 19.23 67.38 18.00ZM68.86 17.46L68.86 17.96Q68.86 19.36 69.41 20.13Q69.96 20.90 70.93 20.90L70.93 20.90Q71.91 20.90 72.44 20.15Q72.97 19.40 72.97 17.96L72.97 17.96L72.97 17.51Q72.97 16.09 72.44 15.34Q71.90 14.58 70.92 14.58L70.92 14.58Q69.96 14.58 69.42 15.33Q68.87 16.09 68.86 17.46L68.86 17.46ZM82.03 22L78.92 22L78.92 13.47L81.85 13.47Q83.29 13.47 84.05 14.05Q84.81 14.63 84.81 15.78L84.81 15.78Q84.81 16.36 84.49 16.83Q84.17 17.30 83.56 17.56L83.56 17.56Q84.25 17.75 84.63 18.26Q85.01 18.78 85.01 19.51L85.01 19.51Q85.01 20.71 84.24 21.36Q83.47 22 82.03 22L82.03 22ZM80.40 18.15L80.40 20.82L82.05 20.82Q82.75 20.82 83.14 20.47Q83.53 20.13 83.53 19.51L83.53 19.51Q83.53 18.18 82.17 18.15L82.17 18.15L80.40 18.15ZM80.40 14.66L80.40 17.06L81.86 17.06Q82.55 17.06 82.94 16.75Q83.33 16.43 83.33 15.86L83.33 15.86Q83.33 15.23 82.97 14.95Q82.61 14.66 81.85 14.66L81.85 14.66L80.40 14.66ZM95.06 22L89.48 22L89.48 13.47L95.02 13.47L95.02 14.66L90.96 14.66L90.96 17.02L94.47 17.02L94.47 18.19L90.96 18.19L90.96 20.82L95.06 20.82L95.06 22ZM100.74 22L99.25 22L99.25 13.47L102.25 13.47Q103.73 13.47 104.53 14.13Q105.34 14.79 105.34 16.05L105.34 16.05Q105.34 16.90 104.92 17.48Q104.51 18.06 103.77 18.37L103.77 18.37L105.69 21.92L105.69 22L104.10 22L102.39 18.71L100.74 18.71L100.74 22ZM100.74 14.66L100.74 17.52L102.26 17.52Q103.01 17.52 103.43 17.15Q103.85 16.77 103.85 16.11L103.85 16.11Q103.85 15.43 103.46 15.05Q103.07 14.68 102.30 14.66L102.30 14.66L100.74 14.66ZM117.19 22L115.71 22L115.71 13.47L121.13 13.47L121.13 14.66L117.19 14.66L117.19 17.20L120.62 17.20L120.62 18.38L117.19 18.38L117.19 22ZM130.87 22L125.29 22L125.29 13.47L130.82 13.47L130.82 14.66L126.77 14.66L126.77 17.02L130.27 17.02L130.27 18.19L126.77 18.19L126.77 20.82L130.87 20.82L130.87 22ZM134.63 19.42L134.63 19.42L136.11 19.42Q136.11 20.15 136.59 20.55Q137.07 20.95 137.97 20.95L137.97 20.95Q138.74 20.95 139.13 20.63Q139.52 20.32 139.52 19.80L139.52 19.80Q139.52 19.24 139.12 18.94Q138.73 18.63 137.70 18.32Q136.67 18.01 136.06 17.63L136.06 17.63Q134.89 16.90 134.89 15.72L134.89 15.72Q134.89 14.69 135.73 14.02Q136.57 13.35 137.91 13.35L137.91 13.35Q138.81 13.35 139.50 13.68Q140.20 14.01 140.60 14.61Q141.00 15.22 141.00 15.96L141.00 15.96L139.52 15.96Q139.52 15.29 139.10 14.91Q138.68 14.54 137.90 14.54L137.90 14.54Q137.18 14.54 136.77 14.85Q136.37 15.16 136.37 15.71L136.37 15.71Q136.37 16.18 136.81 16.50Q137.24 16.81 138.24 17.10Q139.23 17.40 139.84 17.78Q140.44 18.16 140.72 18.65Q141.00 19.13 141.00 19.79L141.00 19.79Q141.00 20.86 140.18 21.49Q139.37 22.12 137.97 22.12L137.97 22.12Q137.04 22.12 136.27 21.77Q135.49 21.43 135.06 20.83Q134.63 20.22 134.63 19.42ZM146.97 14.66L144.34 14.66L144.34 13.47L151.10 13.47L151.10 14.66L148.44 14.66L148.44 22L146.97 22L146.97 14.66Z" fill="#FFFFFF"/><path class="svg__text" d="M177.92 16.17L176.16 15.19Q176.65 14.37 177.54 13.90Q178.43 13.43 179.64 13.43L179.64 13.43Q180.60 13.43 181.34 13.74Q182.07 14.05 182.49 14.64Q182.90 15.22 182.90 15.99L182.90 15.99Q182.90 16.67 182.61 17.28Q182.31 17.89 181.47 18.65L181.47 18.65L179.89 20.11L183.13 20.11L183.13 22L176.59 22L176.59 20.51L179.73 17.57Q180.19 17.14 180.35 16.83Q180.50 16.53 180.50 16.22L180.50 16.22Q180.50 15.81 180.23 15.58Q179.95 15.35 179.42 15.35L179.42 15.35Q178.95 15.35 178.56 15.56Q178.18 15.77 177.92 16.17L177.92 16.17ZM187.31 17.80L187.31 17.80Q187.31 16.45 187.78 15.46Q188.25 14.46 189.09 13.95Q189.94 13.43 191.01 13.43L191.01 13.43Q192.08 13.43 192.92 13.95Q193.76 14.46 194.24 15.46Q194.71 16.45 194.71 17.80L194.71 17.80Q194.71 19.15 194.24 20.15Q193.76 21.14 192.92 21.65Q192.09 22.17 191.01 22.17L191.01 22.17Q189.94 22.17 189.09 21.65Q188.25 21.14 187.78 20.15Q187.31 19.16 187.31 17.80ZM189.69 17.80L189.69 17.80Q189.69 19.06 190.05 19.64Q190.40 20.22 191.01 20.22L191.01 20.22Q191.62 20.22 191.97 19.64Q192.33 19.06 192.33 17.80L192.33 17.80Q192.33 16.54 191.97 15.96Q191.62 15.38 191.01 15.38L191.01 15.38Q190.40 15.38 190.05 15.96Q189.69 16.54 189.69 17.80ZM200.29 16.17L198.53 15.19Q199.02 14.37 199.91 13.90Q200.80 13.43 202.01 13.43L202.01 13.43Q202.97 13.43 203.71 13.74Q204.44 14.05 204.86 14.64Q205.27 15.22 205.27 15.99L205.27 15.99Q205.27 16.67 204.98 17.28Q204.68 17.89 203.85 18.65L203.85 18.65L202.26 20.11L205.50 20.11L205.50 22L198.96 22L198.96 20.51L202.10 17.57Q202.56 17.14 202.72 16.83Q202.87 16.53 202.87 16.22L202.87 16.22Q202.87 15.81 202.60 15.58Q202.32 15.35 201.79 15.35L201.79 15.35Q201.33 15.35 200.94 15.56Q200.55 15.77 200.29 16.17L200.29 16.17ZM210.91 15.44L209.34 15.44L209.34 13.60L213.28 13.60L213.28 22L210.91 22L210.91 15.44Z" fill="#FFFFFF" x="175.88"/></svg>