<svg xmlns="http://www.w3.org/2000/svg" width="265.86" height="35" viewBox="0 0 265.86 35"><rect class="svg__rect" x="0" y="0" width="127.25" height="35" fill="#419B5A"/><rect class="svg__rect" x="125.25" y="0" width="140.61" height="35" fill="#08120B"/><path class="svg__text" d="M15.70 22L14.22 22L14.22 13.47L17.48 13.47Q18.91 13.47 19.75 14.21Q20.59 14.96 20.59 16.18L20.59 16.18Q20.59 17.44 19.77 18.13Q18.95 18.83 17.46 18.83L17.46 18.83L15.70 18.83L15.70 22ZM15.70 14.66L15.70 17.64L17.48 17.64Q18.27 17.64 18.69 17.27Q19.10 16.90 19.10 16.19L19.10 16.19Q19.10 15.50 18.68 15.09Q18.26 14.68 17.52 14.66L17.52 14.66L15.70 14.66ZM24.61 18.00L24.61 18.00L24.61 17.52Q24.61 16.28 25.05 15.32Q25.49 14.37 26.30 13.86Q27.10 13.35 28.14 13.35Q29.19 13.35 29.99 13.85Q30.80 14.35 31.24 15.29Q31.68 16.23 31.68 17.48L31.68 17.48L31.68 17.96Q31.68 19.21 31.25 20.16Q30.82 21.10 30.01 21.61Q29.21 22.12 28.16 22.12L28.16 22.12Q27.12 22.12 26.31 21.61Q25.50 21.10 25.05 20.17Q24.61 19.23 24.61 18.00ZM26.09 17.46L26.09 17.96Q26.09 19.36 26.64 20.13Q27.18 20.90 28.16 20.90L28.16 20.90Q29.14 20.90 29.67 20.15Q30.20 19.40 30.20 17.96L30.20 17.96L30.20 17.51Q30.20 16.09 29.67 15.34Q29.13 14.58 28.14 14.58L28.14 14.58Q27.18 14.58 26.64 15.33Q26.10 16.09 26.09 17.46L26.09 17.46ZM37.53 22L35.56 13.47L37.03 13.47L38.36 19.88L39.99 13.47L41.23 13.47L42.84 19.89L44.15 13.47L45.62 13.47L43.65 22L42.24 22L40.61 15.77L38.96 22L37.53 22ZM55.27 22L49.70 22L49.70 13.47L55.23 13.47L55.23 14.66L51.18 14.66L51.18 17.02L54.68 17.02L54.68 18.19L51.18 18.19L51.18 20.82L55.27 20.82L55.27 22ZM60.95 22L59.47 22L59.47 13.47L62.47 13.47Q63.95 13.47 64.75 14.13Q65.55 14.79 65.55 16.05L65.55 16.05Q65.55 16.90 65.14 17.48Q64.72 18.06 63.99 18.37L63.99 18.37L65.90 21.92L65.90 22L64.31 22L62.60 18.71L60.95 18.71L60.95 22ZM60.95 14.66L60.95 17.52L62.48 17.52Q63.23 17.52 63.65 17.15Q64.07 16.77 64.07 16.11L64.07 16.11Q64.07 15.43 63.68 15.05Q63.29 14.68 62.52 14.66L62.52 14.66L60.95 14.66ZM75.52 22L69.95 22L69.95 13.47L75.48 13.47L75.48 14.66L71.43 14.66L71.43 17.02L74.93 17.02L74.93 18.19L71.43 18.19L71.43 20.82L75.52 20.82L75.52 22ZM82.17 22L79.72 22L79.72 13.47L82.24 13.47Q83.37 13.47 84.25 13.97Q85.12 14.48 85.60 15.40Q86.08 16.33 86.08 17.52L86.08 17.52L86.08 17.95Q86.08 19.16 85.60 20.08Q85.12 21.00 84.22 21.50Q83.33 22 82.17 22L82.17 22ZM81.20 14.66L81.20 20.82L82.17 20.82Q83.33 20.82 83.96 20.09Q84.58 19.36 84.59 17.99L84.59 17.99L84.59 17.52Q84.59 16.13 83.99 15.40Q83.39 14.66 82.24 14.66L82.24 14.66L81.20 14.66ZM99.64 22L96.52 22L96.52 13.47L99.45 13.47Q100.89 13.47 101.65 14.05Q102.41 14.63 102.41 15.78L102.41 15.78Q102.41 16.36 102.09 16.83Q101.77 17.30 101.16 17.56L101.16 17.56Q101.86 17.75 102.23 18.26Q102.61 18.78 102.61 19.51L102.61 19.51Q102.61 20.71 101.84 21.36Q101.07 22 99.64 22L99.64 22ZM98.01 18.15L98.01 20.82L99.65 20.82Q100.35 20.82 100.74 20.47Q101.14 20.13 101.14 19.51L101.14 19.51Q101.14 18.18 99.78 18.15L99.78 18.15L98.01 18.15ZM98.01 14.66L98.01 17.06L99.46 17.06Q100.15 17.06 100.54 16.75Q100.93 16.43 100.93 15.86L100.93 15.86Q100.93 15.23 100.57 14.95Q100.21 14.66 99.45 14.66L99.45 14.66L98.01 14.66ZM109.12 18.86L106.26 13.47L107.90 13.47L109.87 17.51L111.83 13.47L113.47 13.47L110.61 18.86L110.61 22L109.12 22L109.12 18.86Z" fill="#FFFFFF"/><path class="svg__text" d="M146.18 22L139.44 22L139.44 13.60L146.03 13.60L146.03 15.44L141.79 15.44L141.79 16.85L145.53 16.85L145.53 18.63L141.79 18.63L141.79 20.17L146.18 20.17L146.18 22ZM153.32 22L150.99 22L150.99 13.60L152.94 13.60L156.65 18.07L156.65 13.60L158.98 13.60L158.98 22L157.03 22L153.32 17.52L153.32 22ZM165.93 15.48L163.35 15.48L163.35 13.60L170.87 13.60L170.87 15.48L168.31 15.48L168.31 22L165.93 22L165.93 15.48ZM177.62 22L175.24 22L175.24 13.60L177.62 13.60L177.62 16.76L180.86 16.76L180.86 13.60L183.24 13.60L183.24 22L180.86 22L180.86 18.72L177.62 18.72L177.62 22ZM188.33 18.26L188.33 18.26L188.33 13.60L190.71 13.60L190.71 18.19Q190.71 20.20 192.30 20.20L192.30 20.20Q193.88 20.20 193.88 18.19L193.88 18.19L193.88 13.60L196.23 13.60L196.23 18.26Q196.23 20.13 195.19 21.15Q194.15 22.17 192.28 22.17L192.28 22.17Q190.40 22.17 189.37 21.15Q188.33 20.13 188.33 18.26ZM200.73 21.24L200.73 21.24L201.51 19.49Q202.07 19.86 202.81 20.09Q203.56 20.32 204.28 20.32L204.28 20.32Q205.64 20.32 205.65 19.64L205.65 19.64Q205.65 19.28 205.26 19.11Q204.87 18.93 204.00 18.74L204.00 18.74Q203.05 18.53 202.42 18.30Q201.78 18.06 201.33 17.55Q200.87 17.03 200.87 16.16L200.87 16.16Q200.87 15.39 201.29 14.77Q201.71 14.15 202.55 13.79Q203.38 13.43 204.59 13.43L204.59 13.43Q205.41 13.43 206.22 13.62Q207.03 13.80 207.64 14.17L207.64 14.17L206.91 15.93Q205.71 15.28 204.58 15.28L204.58 15.28Q203.87 15.28 203.55 15.49Q203.22 15.70 203.22 16.04L203.22 16.04Q203.22 16.37 203.61 16.54Q203.99 16.71 204.84 16.89L204.84 16.89Q205.80 17.10 206.43 17.33Q207.06 17.56 207.52 18.07Q207.99 18.58 207.99 19.46L207.99 19.46Q207.99 20.21 207.57 20.83Q207.15 21.44 206.31 21.80Q205.47 22.17 204.27 22.17L204.27 22.17Q203.25 22.17 202.29 21.92Q201.32 21.67 200.73 21.24ZM214.94 22L212.56 22L212.56 13.60L214.94 13.60L214.94 22ZM221.53 22L219.11 22L222.82 13.60L225.16 13.60L228.88 22L226.41 22L225.75 20.37L222.20 20.37L221.53 22ZM223.97 15.93L222.89 18.61L225.05 18.61L223.97 15.93ZM232.44 21.24L232.44 21.24L233.22 19.49Q233.79 19.86 234.53 20.09Q235.27 20.32 235.99 20.32L235.99 20.32Q237.36 20.32 237.37 19.64L237.37 19.64Q237.37 19.28 236.98 19.11Q236.59 18.93 235.72 18.74L235.72 18.74Q234.77 18.53 234.13 18.30Q233.50 18.06 233.04 17.55Q232.59 17.03 232.59 16.16L232.59 16.16Q232.59 15.39 233.01 14.77Q233.43 14.15 234.26 13.79Q235.10 13.43 236.31 13.43L236.31 13.43Q237.13 13.43 237.94 13.62Q238.74 13.80 239.36 14.17L239.36 14.17L238.63 15.93Q237.42 15.28 236.29 15.28L236.29 15.28Q235.58 15.28 235.26 15.49Q234.94 15.70 234.94 16.04L234.94 16.04Q234.94 16.37 235.32 16.54Q235.71 16.71 236.56 16.89L236.56 16.89Q237.52 17.10 238.15 17.33Q238.78 17.56 239.24 18.07Q239.70 18.58 239.70 19.46L239.70 19.46Q239.70 20.21 239.28 20.83Q238.87 21.44 238.02 21.80Q237.18 22.17 235.98 22.17L235.98 22.17Q234.96 22.17 234.00 21.92Q233.04 21.67 232.44 21.24ZM246.48 22L244.28 22L244.28 13.60L246.24 13.60L249.19 18.45L252.07 13.60L254.02 13.60L254.05 22L251.87 22L251.84 17.55L249.68 21.17L248.63 21.17L246.48 17.67L246.48 22Z" fill="#FFFFFF" x="138.25"/></svg>